<svg width="0" height="0" xmlns="http://www.w3.org/2000/svg" shape-rendering="geometricPrecision" image-rendering="optimizeQuality">
    <symbol fill-rule="evenodd" viewBox="0 0 52 52" id="accordion">
        <path d="M5 0h42c2 0 4 3 4 5v15c0 2-2 4-4 4H5c-3 0-5-2-5-4V5c0-2 2-5 5-5zm42 6h-7v1l3 3c0 1 1 1 1 0l3-3V6zM5 28h42c2 0 4 2 4 4v15c0 2-2 4-4 4H5c-3 0-5-2-5-4V32c0-2 2-4 5-4zm42 5h-7v1l3 3c0 1 1 1 1 0l3-3v-1z"></path>
    </symbol>
    <symbol fill-rule="evenodd" viewBox="0 0 377 377" id="background">
        <rect x="3" y="3" width="370" height="370" rx="39" ry="28"></rect>
    </symbol>
    <symbol fill-rule="evenodd" viewBox="0 0 69 69" id="badge">
        <path d="M17 0h35c9 0 17 7 17 16h0c0 9-8 16-17 16H17C8 32 0 25 0 16h0C0 7 8 0 17 0zm36 10c4 0 7 3 7 6s-3 6-7 6c-3 0-6-3-6-6s3-6 6-6zm-2 7l1-1-1-1v-1h0c0-1 1-1 1 0l1 1 1-1c1-1 1-1 2 0h0v1l-1 1 1 1v1h0c-1 1-1 1-2 0l-1-1-1 1c0 1-1 1-1 0h0v-1zM17 37h35c9 0 17 7 17 16h0c0 9-8 16-17 16H17C8 69 0 62 0 53h0c0-9 8-16 17-16zm36 10c4 0 7 2 7 6 0 3-3 6-7 6-3 0-6-3-6-6 0-4 3-6 6-6zm-2 7l1-1-1-1v-2h0 1l1 1 1-1h2 0v2l-1 1 1 1v1h0-2l-1-1-1 1h-1 0v-1z"></path>
    </symbol>
    <symbol fill-rule="evenodd" viewBox="0 0 31 31" id="bottom-sheet">
        <path d="M7 0h17c4 0 7 3 7 7v24H0V7c0-4 3-7 7-7z"></path>
    </symbol>
    <symbol fill-rule="evenodd" viewBox="0 0 20 9" id="breadcrumb">
        <rect x="7" width="5.886" height="8.519" rx="2"></rect>
        <rect width="5.886" height="8.519" rx="2"></rect>
        <rect x="14" width="5.886" height="8.519" rx="2"></rect>
    </symbol>
    <symbol fill-rule="evenodd" viewBox="0 0 18 9" id="button">
        <rect width="18.36" height="8.759" rx="4" ry="1"></rect>
    </symbol>
    <symbol fill-rule="evenodd" viewBox="0 0 28 21" id="card">
        <rect width="27.34" height="20.154" rx="3" ry="2"></rect>
    </symbol>
    <symbol fill-rule="evenodd" viewBox="0 0 18 18" id="chart">
        <rect x="6" y="3" width="5.513" height="15.166" rx="1" ry="2"></rect>
        <rect x="13" width="5.513" height="18.463" rx="1" ry="3"></rect>
        <rect y="7" width="5.513" height="11.87" rx="1" ry="2"></rect>
    </symbol>
    <symbol fill-rule="evenodd" viewBox="0 0 50 50" id="data">
        <rect width="50.106" height="14.867" rx="11" ry="2"></rect>
        <rect y="35" width="50.106" height="14.867" rx="11" ry="2"></rect>
        <rect y="18" width="50.106" height="14.867" rx="11" ry="2"></rect>
    </symbol>
    <symbol fill-rule="evenodd" viewBox="0 0 20 19" id="dimension">
        <path d="M11 9l6-3 1-1c0-1 0-1-1-1l-2-2-4-2h-1L5 2 3 4C2 4 2 4 2 5l1 1 7 3h1zm-2 9v-7-1L2 7C1 6 1 6 1 7 0 7 0 7 0 8v6c0 1 0 1 1 2l4 2 3 1h1v-1zM19 7l-7 3c-1 0-1 1-1 1v7 1h2l3-1 4-2v-2-6-1c-1-1-1-1-1 0z"></path>
    </symbol>
    <symbol fill-rule="evenodd" viewBox="0 0 69 51" id="display">
        <path d="M5 0h58c3 0 6 2 6 5v40c0 3-3 6-6 6H5c-3 0-5-3-5-6V5c0-3 2-5 5-5zm17 15h24c2 0 3 1 3 2v17c0 1-1 2-3 2H22c-1 0-2-1-2-2V17c0-1 1-2 2-2z"></path>
    </symbol>
    <symbol fill-rule="evenodd" viewBox="0 0 27 27" id="export">
        <path d="M26 17l-4-3h-2c-1 0-1 1-1 1v6s0 1 1 1c1 1 1 1 2 0l4-2c1-1 1-1 1-2 0 0 0-1-1-1zm-9-3v-1V3c0-2-1-3-3-3H3C1 0 0 1 0 3v21c0 2 1 3 3 3h11c2 0 3-1 3-3v-2c0-1-1-1-2-1H7c-1 0-1-1-1-1v-4h1 8c1 0 2-1 2-2z"></path>
    </symbol>
    <symbol fill-rule="evenodd" viewBox="0 0 27 31" id="flex">
        <rect width="8.07" height="31.37" rx="2" ry="5"></rect>
        <rect x="9" width="8.07" height="31.37" rx="2" ry="5"></rect>
        <rect x="19" width="8.07" height="31.37" rx="2" ry="5"></rect>
    </symbol>
    <symbol fill-rule="evenodd" viewBox="0 0 50 50" id="font">
        <path d="M7 0h36c4 0 7 3 7 7v36c0 4-3 7-7 7H7c-4 0-7-3-7-7V7c0-4 3-7 7-7zm31 9l-1 5H24l-2 9h10l-1 4H21l-2 14h-6l5-32h20z"></path>
    </symbol>
    <symbol fill-rule="evenodd" viewBox="0 0 18 18" id="framework">
        <rect x="10" y="10" width="8.679" height="8.679" rx="1"></rect>
        <rect x="10" width="8.679" height="8.679" rx="1"></rect>
        <rect width="8.679" height="8.679" rx="1"></rect>
        <rect y="10" width="8.679" height="8.679" rx="1"></rect>
    </symbol>
    <symbol fill-rule="evenodd" viewBox="0 0 31 31" id="filter">
        <path d="M0 5c0-3 2-5 5-5h22c2 0 4 2 4 5v2c0 1 0 2-1 3l-9 9-1 1v4c0 1 0 2-1 3l-3 4c-2 1-5 0-5-2v-9-1L1 10C0 9 0 8 0 7V5z"></path>
    </symbol>
    <symbol fill-rule="evenodd" viewBox="0 0 50 50" id="form">
        <rect width="50.106" height="14.867" rx="11" ry="2"></rect>
        <rect y="35" width="34.168" height="14.867" rx="8" ry="2"></rect>
        <rect y="18" width="50.106" height="14.867" rx="11" ry="2"></rect>
    </symbol>
    <symbol fill-rule="evenodd" viewBox="0 0 377 377" id="gap">
        <path d="M37 160h123V37c0-3 1-6 3-8l20-23c2-2 4-3 5-3 2 0 4 1 5 3l21 23c2 2 3 5 3 8v123h122c4 0 7 1 9 3l23 20c2 2 2 4 2 5 0 2 0 4-2 5l-23 21c-2 2-5 3-9 3H217v122c0 4-1 7-3 9l-21 23c-1 2-3 2-5 2-1 0-3 0-4-2l-21-23c-2-2-3-5-3-9V217H37c-3 0-6-1-8-3L6 193c-2-1-3-3-3-5 0-1 1-3 3-5l23-20c2-2 5-3 8-3z"></path>
    </symbol>
    <symbol fill-rule="evenodd" viewBox="0 0 18 21" id="grid">
        <rect width="18.36" height="6.527" rx="3" ry="1"></rect>
        <rect x="6" y="7" width="12.718" height="6.527" rx="2" ry="1"></rect>
        <rect y="15" width="6.12" height="6.527" rx="1"></rect>
        <rect y="7" width="4.59" height="6.527" rx="1"></rect>
        <rect x="7" y="15" width="5.22" height="6.527" rx="1"></rect>
        <rect x="13" y="15" width="5.288" height="6.527" rx="1"></rect>
    </symbol>
    <symbol fill-rule="evenodd" viewBox="0 0 2 11" id="height">
        <path d="M0 4V1h0l1-1 1 1h0v3 2 4h0-1v1-1H0h0V6 4z"></path>
    </symbol>
    <symbol fill-rule="evenodd" viewBox="0 0 370 300" id="image">
        <path d="M213 31l-18-18c-17-17-44-17-61 0L13 134c-9 8-13 19-13 31v91c0 24 19 44 43 44h284c24 0 43-20 43-44v-51c0-12-4-22-13-30L213 31zm78-1l-12 7c-5 3-8 7-8 12-1 5 1 9 4 13l61 61c6 6 14 7 22 4 7-3 12-10 12-18V72c0-6-2-10-6-14l-21-21c-14-14-35-17-52-7z"></path>
    </symbol>
    <symbol fill-rule="evenodd" viewBox="0 0 27 27" id="layout">
        <rect width="6.741" height="26.873" rx="1" ry="2"></rect>
        <rect x="8" width="18.392" height="4.94" rx="1"></rect>
        <rect x="8" y="7" width="18.392" height="20.284" rx="2"></rect>
    </symbol>
    <symbol fill-rule="evenodd" viewBox="0 0 63 63" id="loading">
        <path d="M4 47c6 10 16 16 28 16 8 0 15-3 21-8v-2c0-1-1-1-1-1-4-1-7-3-10-6-1-1-2-1-3 0-2 1-5 2-7 2-5 0-9-2-12-5s-5-7-5-11c0-3 1-5 2-8 1-1 1-3 0-4 0-1-1-3-3-3-2-1-4-2-6-2s-4 2-5 4c-2 4-3 8-3 13s2 11 4 15zm44-15c0 2-1 5-2 7-1 1-1 3 0 4 0 2 1 3 3 3 2 1 4 2 6 2 3 0 4-1 5-3 2-4 3-9 3-13 0-6-1-12-4-16C53 6 43 0 32 0c-8 0-16 3-21 8-1 0-1 1-1 2s1 1 2 1c4 1 7 3 9 6 1 0 2 1 3 0 2-1 5-2 8-2 4 0 9 2 12 6 2 3 4 6 4 11z"></path>
    </symbol>
    <symbol fill-rule="evenodd" viewBox="0 0 33 33" id="modal">
        <path d="M4 0h25c2 0 3 2 3 4v25c0 2-1 3-3 3H4c-2 0-4-1-4-3V4c0-2 2-4 4-4zm22 3c1 0 2 1 2 2 0 2-1 2-2 2s-2 0-2-2c0-1 1-2 2-2z"></path>
    </symbol>
    <symbol fill-rule="evenodd" viewBox="0 0 36 36" id="no-data">
        <path d="M18 2.1a16 16 0 1 0 16 16 16 16 0 0 0-16-16zm-1.4 6.7a1.4 1.4 0 0 1 2.8 0v12a1.4 1.4 0 0 1-2.8 0zM18 28.6a1.8 1.8 0 1 1 1.8-1.8 1.8 1.8 0 0 1-1.8 1.8z"></path>
        <path fill-opacity="0" d="M0 0h36v36H0z"></path>
    </symbol>
    <symbol fill-rule="evenodd" viewBox="0 0 20 15" id="pagination">
        <path d="M7 0h6c4 0 7 3 7 7h0c0 4-3 8-7 8H7c-4 0-7-4-7-8h0c0-4 3-7 7-7zm4 4H9L8 5v4c0 1 1 1 1 1h2c1 0 1 0 1-1V5s0-1-1-1zM4 4h2c1 0 1 1 1 1v4c0 1 0 1-1 1H4c-1 0-1 0-1-1V5s0-1 1-1zm10 0h2c1 0 1 1 1 1v4c0 1 0 1-1 1h-2s-1 0-1-1V5l1-1z"></path>
    </symbol>
    <symbol fill-rule="evenodd" viewBox="0 0 19 23" id="place-content">
        <path d="M10 0C5 0 2 3 0 7c0 2 0 4 1 5l6 8 1 2c1 1 1 1 2 1 0 0 1 0 1-1l1-2 6-8c1-1 2-3 1-5-2-4-5-7-9-7z"></path>
    </symbol>
    <symbol fill-rule="evenodd" viewBox="0 0 370 370" id="section-title">
        <path d="M39 0h292c21 0 39 18 39 39v292c0 21-18 39-39 39H39c-21 0-39-18-39-39V39C0 18 18 0 39 0zm50 86h192c6 0 10 5 10 10v79c0 5-4 10-10 10H89c-6 0-10-5-10-10V96c0-5 4-10 10-10z"></path>
    </symbol>
    <symbol fill-rule="evenodd" viewBox="0 0 18 7" id="stepper">
        <path d="M4 0c1 0 3 1 3 3h4c1-2 2-3 4-3s3 2 3 4-1 3-3 3-3-1-4-3H7c0 2-2 3-3 3-2 0-4-1-4-3s2-4 4-4z"></path>
    </symbol>
    <symbol fill-rule="evenodd" viewBox="0 0 15 15" id="svg">
        <path d="M1 1.5A1.5 1.5 0 0 1 2.5 0h8.207L14 3.293V13.5a1.5 1.5 0 0 1-1.5 1.5h-10A1.5 1.5 0 0 1 1 13.5v-12zM5 6H2v3h2v1H2v1h3V8H3V7h2V6zm2 0H6v3.707l1.5 1.5 1.5-1.5V6H8v3.293l-.5.5-.5-.5V6zm3 0h3v1h-2v3h1V8.5h1V11h-3V6z"></path>
    </symbol>
    <symbol fill-rule="evenodd" viewBox="0 0 27 27" id="table">
        <rect width="8.347" height="8.369" rx="2" ry="1"></rect>
        <rect y="9" width="8.347" height="8.369" rx="2" ry="1"></rect>
        <rect y="19" width="8.347" height="8.369" rx="2" ry="1"></rect>
        <rect x="9" width="8.347" height="8.369" rx="2" ry="1"></rect>
        <rect x="9" y="9" width="8.347" height="8.369" rx="2" ry="1"></rect>
        <rect x="9" y="19" width="8.347" height="8.369" rx="2" ry="1"></rect>
        <rect x="19" width="8.347" height="8.369" rx="2" ry="1"></rect>
        <rect x="19" y="9" width="8.347" height="8.369" rx="2" ry="1"></rect>
        <rect x="19" y="19" width="8.347" height="8.369" rx="2" ry="1"></rect>
    </symbol>
    <symbol fill-rule="evenodd" viewBox="0 0 50 58" id="text">
        <path d="M7 0h36c4 0 7 3 7 7v44c0 4-3 7-7 7H7c-4 0-7-3-7-7V7c0-4 3-7 7-7zm24 39H19l-2 6h-7l11-32h8l11 32h-7l-2-6zm-1-5l-5-13-5 13h10z"></path>
    </symbol>
    <symbol fill-rule="evenodd" viewBox="0 0 146 370" id="timeline">
        <path d="M0 297c0-35 25-65 59-72v-80c-34-7-59-37-59-72C0 33 33 0 73 0s73 33 73 73c0 35-26 65-59 72v80c33 7 59 37 59 72 0 40-33 73-73 73S0 337 0 297z"></path>
    </symbol>
    <symbol fill-rule="evenodd" viewBox="0 0 72 53" id="toast">
        <path d="M6 1h59c3 0 6 2 6 5v41c0 3-3 5-6 5H6c-3 0-5-2-5-5V6c0-3 2-5 5-5zm54 5c3 0 5 2 5 4s-2 4-5 4c-2 0-4-2-4-4s2-4 4-4z"></path>
    </symbol>
    <symbol fill-rule="evenodd" viewBox="0 0 31 18" id="toggle">
        <path d="M9 3c3 0 6 3 6 6s-3 5-6 5-5-2-5-5 2-6 5-6zm14-3H9a8.96 8.96 0 0 0-9 9 8.96 8.96 0 0 0 9 9h14c4 0 8-4 8-9s-4-9-8-9z"></path>
    </symbol>
    <symbol fill-rule="evenodd" viewBox="0 0 20 20" id="tooltip">
        <rect x="5" y="12" width="15.066" height="8.221" rx="4" ry="2"></rect>
        <rect width="20.382" height="10.191" rx="4" ry="2"></rect>
    </symbol>
    <symbol fill-rule="evenodd" viewBox="0 0 33 6" id="width">
        <path d="M14 5H3h0-1L0 3V2l2-1 1-1h0 11 5 10 0c1 0 1 0 1 1l2 1v1l-2 2h-1 0-10-5z"></path>
    </symbol>
</svg>